# xmcd
# 
# Track frame offsets:
#     150
#     19275
#     39825
#     59215
#     82913
#     100728
#     119672
#     138038
#     154732
#     174912
#     194054
#     210730
#     228434
#     245016
# 
# Disc length: 3475
# 
# Revision: 0
# Processed by: cddbd v1.5.2PL0 Copyright (c) Steve Scherf et al.
# Submitted via: fre:ac v1.0.17
# 
DISCID=bf0d910e
DTITLE=Sheryl Crow - Wildflower
DYEAR=2005
DGENRE=Rock
TTITLE0=I Know Why
TTITLE1=Perfect Lie
TTITLE2=Good Is Good
TTITLE3=Chances Are
TTITLE4=Wildflower
TTITLE5=Lifetimes
TTITLE6=Letter To God
TTITLE7=Live It Up
TTITLE8=I Don't Wanna Know
TTITLE9=Always On Your Side
TTITLE10=Where Has All The Love Gone
TTITLE11=Wildflower (Acoustic Version)
TTITLE12=Where Has All The Love Gone (Acoustic Version)
TTITLE13=Letter To God (Acoustic Version)
EXTD=YEAR: 2005
EXTT0=
EXTT1=
EXTT2=
EXTT3=
EXTT4=
EXTT5=
EXTT6=
EXTT7=
EXTT8=
EXTT9=
EXTT10=
EXTT11=
EXTT12=
EXTT13=
PLAYORDER=
